{"accessors" : [{"bufferView" : 0, "byteOffset" : 0, "componentType" : 5123, "count" : 144, "type" : "SCALAR", "max" : [119], "min" : [0]}, {"bufferView" : 1, "byteOffset" : 0, "componentType" : 5126, "count" : 120, "type" : "VEC3", "max" : [0.38397419452667236, -2.799999952316284, 0.923343300819397], "min" : [-1.0970094203948975, -3.200000047683716, -0.9807842969894409], "name" : "POSITION"}, {"bufferView" : 1, "byteOffset" : 12, "componentType" : 5126, "count" : 120, "type" : "VEC3", "max" : [0.9925263524055481, 1.0000044107437134, 1.000003457069397], "min" : [-0.923347532749176, -1.0000044107437134, -0.9233479499816895], "name" : "NORMAL"}, {"bufferView" : 1, "byteOffset" : 24, "componentType" : 5126, "count" : 120, "type" : "VEC2", "max" : [0.96875, 0.5], "min" : [0.0625, 0], "name" : "TEXCOORD_0"}, {"bufferView" : 0, "byteOffset" : 288, "componentType" : 5123, "count" : 90, "type" : "SCALAR", "max" : [76], "min" : [0]}, {"bufferView" : 2, "byteOffset" : 0, "componentType" : 5126, "count" : 77, "type" : "VEC3", "max" : [0.23247307538986206, -2.7726848125457764, -0.9061279296875], "min" : [-0.9103795886039734, -3.208893299102783, -2.2796003818511963], "name" : "POSITION"}, {"bufferView" : 2, "byteOffset" : 12, "componentType" : 5126, "count" : 77, "type" : "VEC3", "max" : [0.9926454424858093, 0.9999114274978638, 0.9810612797737122], "min" : [-0.9807431697845459, -0.9999114274978638, -0.9809258580207825], "name" : "NORMAL"}, {"bufferView" : 2, "byteOffset" : 24, "componentType" : 5126, "count" : 77, "type" : "VEC2", "max" : [0.75, 0.5], "min" : [0.0625, 0], "name" : "TEXCOORD_0"}, {"bufferView" : 0, "byteOffset" : 468, "componentType" : 5123, "count" : 78, "type" : "SCALAR", "max" : [66], "min" : [0]}, {"bufferView" : 3, "byteOffset" : 0, "componentType" : 5126, "count" : 67, "type" : "VEC3", "max" : [-0.6944894194602966, -2.7726848125457764, 1.638656735420227], "min" : [-2.122812509536743, -3.208893299102783, 0.28725671768188477], "name" : "POSITION"}, {"bufferView" : 3, "byteOffset" : 12, "componentType" : 5126, "count" : 67, "type" : "VEC3", "max" : [0.8319843411445618, 0.9999114274978638, 0.8321169018745422], "min" : [-0.8317261934280396, -0.9999114274978638, -0.8714304566383362], "name" : "NORMAL"}, {"bufferView" : 3, "byteOffset" : 24, "componentType" : 5126, "count" : 67, "type" : "VEC2", "max" : [0.5, 0.5], "min" : [0.0625, 0], "name" : "TEXCOORD_0"}, {"bufferView" : 0, "byteOffset" : 624, "componentType" : 5123, "count" : 228, "type" : "SCALAR", "max" : [191], "min" : [0]}, {"bufferView" : 4, "byteOffset" : 0, "componentType" : 5126, "count" : 192, "type" : "VEC3", "max" : [0.38397419452667236, 0.20146334171295166, 1.638656735420227], "min" : [-2.122812509536743, -2.799999952316284, -2.2796003818511963], "name" : "POSITION"}, {"bufferView" : 4, "byteOffset" : 12, "componentType" : 5126, "count" : 192, "type" : "VEC3", "max" : [0.9925262928009033, 0, 1.0000033378601074], "min" : [-0.9807431101799011, -1.0000044107437134, -0.9806053042411804], "name" : "NORMAL"}, {"bufferView" : 4, "byteOffset" : 24, "componentType" : 5126, "count" : 192, "type" : "VEC2", "max" : [0.96875, 1], "min" : [0, 0.5], "name" : "TEXCOORD_0"}], "asset" : {"generator" : "Aspose.3D 21.11", "version" : "2.0"}, "buffers" : [{"uri" : "data:application/octet-stream;base64,", "byteLength" : 18380}], "bufferViews" : [{"buffer" : 0, "byteOffset" : 0, "byteLength" : 1080, "target" : 34963}, {"buffer" : 0, "byteOffset" : 1084, "byteLength" : 4608, "byteStride" : 32, "target" : 34962}, {"buffer" : 0, "byteOffset" : 5696, "byteLength" : 2880, "byteStride" : 32, "target" : 34962}, {"buffer" : 0, "byteOffset" : 8580, "byteLength" : 2496, "byteStride" : 32, "target" : 34962}, {"buffer" : 0, "byteOffset" : 11080, "byteLength" : 7296, "byteStride" : 32, "target" : 34962}], "materials" : [{"name" : "Material.001", "pbrMetallicRoughness" : {"baseColorFactor" : [1, 0.8910086154937744, 0.5590624809265137, 1], "metallicFactor" : 0, "roughnessFactor" : 0.5}, "emissiveFactor" : [0, 0, 0], "alphaMode" : "OPAQUE", "doubleSided" : true}, {"name" : "Material.002", "pbrMetallicRoughness" : {"baseColorFactor" : [0.3175870478153229, 1, 0.4471129775047302, 1], "metallicFactor" : 0, "roughnessFactor" : 0.5}, "emissiveFactor" : [0, 0, 0], "alphaMode" : "OPAQUE", "doubleSided" : true}, {"name" : "Material.003", "pbrMetallicRoughness" : {"baseColorFactor" : [0.34792500734329224, 0.6667296886444092, 1, 1], "metallicFactor" : 0, "roughnessFactor" : 0.5}, "emissiveFactor" : [0, 0, 0], "alphaMode" : "OPAQUE", "doubleSided" : true}, {"name" : "Material.004", "pbrMetallicRoughness" : {"baseColorFactor" : [1, 0.7767033576965332, 0.6880488991737366, 1], "metallicFactor" : 0, "roughnessFactor" : 0.5}, "emissiveFactor" : [0, 0, 0], "alphaMode" : "OPAQUE", "doubleSided" : true}], "meshes" : [{"primitives" : [{"attributes" : {"POSITION" : 1, "NORMAL" : 2, "TEXCOORD_0" : 3}, "indices" : 0, "material" : 0, "mode" : 4}, {"attributes" : {"POSITION" : 5, "NORMAL" : 6, "TEXCOORD_0" : 7}, "indices" : 4, "material" : 1, "mode" : 4}, {"attributes" : {"POSITION" : 9, "NORMAL" : 10, "TEXCOORD_0" : 11}, "indices" : 8, "material" : 2, "mode" : 4}, {"attributes" : {"POSITION" : 13, "NORMAL" : 14, "TEXCOORD_0" : 15}, "indices" : 12, "material" : 3, "mode" : 4}]}], "nodes" : [{"matrix" : [-5.540062771337216, 0, 2.303845549085768, 0, 0, 1, 0, 0, -2.303845549085768, 0, -5.540062771337216, 0, 0, 3, 0, 1], "mesh" : 0, "name" : "Cylinder.001"}], "scene" : 0, "scenes" : [{"nodes" : [0]}]}